<svg version="1.2" xmlns="http://www.w3.org/2000/svg" viewBox="0 0 719 712" width="1034" height="1024">
	<title>chuan-eps</title>
	<style>
		.s0 { fill: #ffffff } 
		.s1 { fill: #31d58e } 
		.s2 { fill: #bf99ff } 
		.s3 { fill: #2d3a69 } 
		.s4 { fill: #fe7170 } 
	</style>
	<g id="Page 1">
		<path id="形状 3" fill-rule="evenodd" class="s0" d="m11 559l457-35-47 174c0 0-30.7 16.1-138 3-107.3-13.1-122-30-122-30 0 0-45.3-5.6-107-54-61.7-48.4-47.1-62-43-58z"/>
		<path id="Path 1" fill-rule="evenodd" class="s1" d="m397 677.3c0 7.7 0.4 15.3 1.3 22.8 166.8-13.6 297.3-95 310.1-195.9l-241.5 18.8c-42.8 37.7-69.9 92.8-69.9 154.3z"/>
		<path id="形状 2" fill-rule="evenodd" class="s0" d="m320 50c0 0-239.1 462.6-230 462 9.1-0.6 233-16 233-16z"/>
		<path id="Path 2" fill-rule="evenodd" class="s2" d="m520.4 487.8l-12-59c-19.4-112.8-65.7-219.2-135-310.4l-29-40.6c-2.8-1.2-4.3-1.8-4.3-1.8 0 0 39.6 111.6 43.9 221.1 4.3 109.5-38.5 211.9-38.5 211.9z"/>
		<path id="Path 3" fill-rule="evenodd" class="s3" d="m233.7 223.2c-1.4 0-2.8-0.3-4-1-4.5-2.2-6.4-7.6-4.1-12l8.5-17.2c2.2-4.4 7.6-6.3 12-4 4.5 2.2 6.4 7.6 4.1 12l-8.5 17.2c-1.6 3.2-4.8 5-8 5z"/>
		<path id="形状 1" fill-rule="evenodd" class="s2" d="m341.8 86.1l172.8 400.8 151.6-20.2-61.4-137.3-101.8-144.4"/>
		<path id="Path 4" fill-rule="evenodd" class="s4" d="m323.3 56.3h-113.6l26.8-23.3-26.8-23.4h113.6z"/>
		<path id="Path 5" fill-rule="evenodd" class="s3" d="m714.9 497.9c-1.9-2-4.5-2.9-7.2-2.8l-372 29.1v-3c0.3 0 0.6 0.1 0.8 0.1 0.4 0 0.8 0 1.2-0.1l331.3-40.3c2.7-0.3 5.1-1.9 6.5-4.1 1.4-2.2 1.8-5 1-7.6-2.1-7-53.7-170.7-147.3-270.1-73.5-78.1-180.4-124.1-193.4-129.4v-60c0-5-4.1-9.1-9-9.1-0.5 0-0.9 0.1-1.4 0.2-0.6-0.2-1.3-0.2-2.1-0.2h-113.6c-3.7 0-7.1 2.3-8.4 5.8-1.4 3.5-0.4 7.5 2.4 10l19 16.6-19 16.5c-2.8 2.5-3.8 6.5-2.4 10 1.3 3.5 4.7 5.9 8.4 5.9h87.5l-42.2 85.2c-2.2 4.4-0.4 9.8 4.1 12 4.5 2.3 9.8 0.4 12.1-4l43.3-87.5 1.2 417.9-215.6 15.6 126.8-256.4c2.2-4.4 0.4-9.8-4.1-12-4.5-2.3-9.9-0.4-12.1 4l-133.8 270.6c-1.5 2.9-1.2 6.3 0.6 9 1.7 2.5 4.5 4 7.5 4h0.7l232-16.8v18.8l-309.4 24.1c-3.1 0.3-5.8 2.1-7.3 4.8-1.4 2.8-1.3 6.1 0.3 8.7 52.2 88.4 192 147.6 347.7 147.6 93 0 181.8-20.8 249.9-58.5 69.2-38.3 111.2-90.6 118.4-147.3 0.4-2.6-0.5-5.3-2.4-7.3zm-198.9-286.3c77.6 82.4 126.9 215 139.8 252.8l-305.5 37.2c11.6-32.2 37.3-114.6 33.8-202.4-3.2-84-26.5-167.9-38-205 35.2 16.6 113.7 57.8 169.9 117.4zm-149.9 88.3c3.1 78.1-18.4 153.4-30.4 188.5v-365.3c11.9 42.3 27.8 110.2 30.4 176.8zm-132.4-252.5l8.7-7.6c1.9-1.7 3.1-4.2 3.1-6.8 0-2.7-1.1-5.1-3.1-6.8l-8.7-7.6h80.6v28.7h-80.6zm115.3 645.7c-142.1 0-269.6-50.2-324.1-126.3l672.5-52.7c-22.2 101.2-171.7 179-348.4 179z"/>
	</g>
</svg>